<?xml version="1.0" encoding="UTF-8"?>
<svg width="1080px" height="1080px" viewBox="0 0 1080 1080" version="1.1" xmlns="http://www.w3.org/2000/svg" xmlns:xlink="http://www.w3.org/1999/xlink">
    <!-- Generator: Sketch 64 (93537) - https://sketch.com -->
    <title>SwiftGraphQL #2</title>
    <desc>Created with Sketch.</desc>
    <g id="SwiftGraphQL-#2" stroke="none" stroke-width="1" fill="none" fill-rule="evenodd">
        <g id="Group" transform="translate(25.000000, 25.000000)" fill="#F05138" fill-rule="nonzero">
            <path d="M1029.92813,285.289392 C1029.86743,274.930588 1029.75296,264.576988 1029.46681,254.206044 C1028.86328,231.646641 1027.52963,208.882593 1023.51999,186.564254 C1019.45138,163.89906 1012.80045,142.824193 1002.3185,122.234922 C992.029059,102.015051 978.578038,83.5121086 962.532545,67.4666289 C946.49052,51.4211492 927.987562,37.9718739 907.759003,27.6772385 C887.187057,17.2074416 866.108704,10.5582447 843.464302,6.48964386 C821.133804,2.46786831 798.369737,1.1428849 775.792972,0.532421343 C765.427223,0.251469364 755.071879,0.133538903 744.709598,0.069370859 C732.410135,0 720.102,0 707.806005,0 L435.150551,0 L322.195621,0 C309.887486,0 297.593225,0 285.29723,0.0711051304 C274.931481,0.135273175 264.563997,0.253203635 254.213856,0.534155614 C248.570532,0.686771504 242.915068,0.884478452 237.256135,1.15675907 C220.281072,1.97533521 203.279994,3.47548003 186.540792,6.49137813 C169.557057,9.54369592 153.452599,14.0458647 137.785177,20.5233686 C132.563281,22.6808023 127.388211,25.0602228 122.244357,27.6772385 C107.072938,35.3982151 92.8692423,44.8933514 79.9506432,55.9267865 C75.6444435,59.6051763 71.4804542,63.4535247 67.4708151,67.4648946 C51.4218534,83.5103743 37.9708326,102.013317 27.6813912,122.233188 C17.1994456,142.822459 10.5571803,163.897326 6.48510745,186.56252 C2.47893697,208.880859 1.14701536,231.644907 0.540019833,254.20431 C0.255599072,264.575253 0.135934239,274.928854 0.0682975951,285.287657 C0,297.590579 0,309.895235 0,322.194689 L0,490.105119 L0,707.799545 C0,720.111139 -0.0114789598,732.403655 0.0682975951,744.715248 C0.135934239,755.074051 0.255599072,765.427652 0.540019833,775.781253 C1.14701536,798.352796 2.4772027,821.122046 6.48510745,843.42998 C10.5571803,866.088237 17.1994456,887.182181 27.6813912,907.766249 C37.9708326,927.991323 51.4218534,946.489063 67.4708151,962.527605 C83.507637,978.580022 102.015798,992.027563 122.246091,1002.32914 C142.819771,1012.80067 163.89639,1019.44119 186.545995,1023.50979 C208.862619,1027.52637 231.644028,1028.86175 254.21559,1029.46528 C264.565731,1029.74103 274.933215,1029.86416 285.298964,1029.92313 C297.594959,1030.01158 309.88922,1030 322.197355,1030 L707.806005,1030 C720.102,1030 732.410135,1030.01158 744.707864,1029.92313 C755.070145,1029.86416 765.425489,1029.74103 775.791238,1029.46528 C798.368003,1028.86175 821.13207,1027.52463 843.462568,1023.50979 C866.106969,1019.44119 887.185323,1012.79893 907.757268,1002.32914 C927.985828,992.029297 946.488786,978.580022 962.53081,962.527605 C978.576303,946.487328 992.029059,927.991323 1002.31677,907.766249 C1012.79871,887.182181 1019.44965,866.089971 1023.51825,843.42998 C1027.52789,821.122046 1028.86155,798.352796 1029.46507,775.781253 C1029.74949,765.427652 1029.86396,755.075786 1029.92639,744.715248 C1030,732.403655 1030,720.111139 1030,707.799545 L1030,322.194689 C1030,309.895235 1030,297.590579 1029.92813,285.289392 Z" id="Path"></path>
        </g>
        <g id="GraphQL" transform="translate(182.000000, 139.000000)" fill="#FFFFFF" fill-rule="nonzero">
            <polygon id="Rectangle" transform="translate(214.722067, 319.590205) rotate(-149.999272) translate(-214.722067, -319.590205) " points="197.639341 -8.83905821 231.67377 -8.83226782 231.804792 648.019468 197.770363 648.012678"></polygon>
            <rect id="Rectangle" x="29" y="551" width="656" height="34"></rect>
            <polygon id="Rectangle" transform="translate(214.800174, 649.328244) rotate(-149.999272) translate(-214.800174, -649.328244) " points="25.1471007 632.269271 404.446458 632.344947 404.453248 666.387216 25.1538911 666.31154"></polygon>
            <polygon id="Rectangle" transform="translate(500.118233, 154.870295) rotate(-149.999272) translate(-500.118233, -154.870295) " points="310.465159 137.811322 689.764516 137.886998 689.771306 171.929267 310.471949 171.853592"></polygon>
            <polygon id="Rectangle" transform="translate(214.891198, 154.740670) rotate(-120.000728) translate(-214.891198, -154.740670) " points="197.832225 -34.9124033 231.874494 -34.9056129 231.95017 344.393744 197.907901 344.386954"></polygon>
            <polygon id="Rectangle" transform="translate(500.351736, 319.596358) rotate(-120.000728) translate(-500.351736, -319.596358) " points="171.922473 302.513633 828.774209 302.644655 828.781 336.679083 171.929263 336.548062"></polygon>
            <rect id="Rectangle" x="56" y="214" width="34" height="379"></rect>
            <rect id="Rectangle" x="625" y="214" width="34" height="379"></rect>
            <polygon id="Rectangle" transform="translate(500.116798, 649.138935) rotate(-120.000728) translate(-500.116798, -649.138935) " points="485.21603 484.192005 514.951747 484.197937 515.017565 814.085864 485.281848 814.079933"></polygon>
            <path d="M705.32905,602.239691 C685.685748,636.443292 641.897553,648.117575 607.726392,628.455625 C573.555232,608.793674 561.892021,564.96391 581.535323,530.760309 C601.178625,496.556708 644.966819,484.882425 679.13798,504.544375 C713.513759,524.411138 725.17697,568.03609 705.32905,602.239691" id="Path"></path>
            <path d="M133.455625,273.239691 C113.793674,307.443292 69.9639101,319.117575 35.7603091,299.455625 C1.55670799,279.793674 -10.117575,235.96391 9.5443753,201.760309 C29.2063256,167.556708 73.0360899,155.882425 107.239691,175.544375 C141.443292,195.411138 153.117575,239.03609 133.455625,273.239691" id="Path"></path>
            <path d="M10.5443753,602.239691 C-9.11757502,568.03609 2.55670799,524.411138 36.7603091,504.544375 C70.9639101,484.882425 114.588862,496.556708 134.455625,530.760309 C154.117575,564.96391 142.443292,608.588862 108.239691,628.455625 C73.8312779,648.117575 30.2063256,636.443292 10.5443753,602.239691" id="Path"></path>
            <path d="M581.544375,273.239691 C561.882425,239.03609 573.556708,195.411138 607.760309,175.544375 C641.96391,155.882425 685.588862,167.556708 705.455625,201.760309 C725.117575,235.96391 713.443292,279.588862 679.239691,299.455625 C645.03609,319.117575 601.206326,307.443292 581.544375,273.239691" id="Path"></path>
            <path d="M358.5,804 C318.959885,804 287,772.040115 287,732.5 C287,692.959885 318.959885,661 358.5,661 C398.040115,661 430,692.959885 430,732.5 C430,771.835244 398.040115,804 358.5,804" id="Path"></path>
            <path d="M358.5,143 C318.959885,143 287,111.040115 287,71.5 C287,31.9598854 318.959885,0 358.5,0 C398.040115,0 430,31.9598854 430,71.5 C430,111.040115 398.040115,143 358.5,143" id="Path"></path>
        </g>
    </g>
</svg>