<?xml version="1.0" encoding="UTF-8"?>
<svg width="2248px" height="854px" viewBox="0 0 2248 854" version="1.1" xmlns="http://www.w3.org/2000/svg" xmlns:xlink="http://www.w3.org/1999/xlink">
    <!-- Generator: Sketch 64 (93537) - https://sketch.com -->
    <title>Thumbnail</title>
    <desc>Created with Sketch.</desc>
    <g id="Thumbnail" stroke="none" stroke-width="1" fill="none" fill-rule="evenodd">
        <g id="SwiftGraphQL" transform="translate(118.000000, 105.000000)" fill="#FFFFFF">
            <g id="Logo">
                <g id="Swift" transform="translate(0.000000, 103.660714)" fill-rule="nonzero">
                    <path d="M59.390518,312.84387 C64.3782415,357.009399 106.62125,385.965727 165.287198,385.965727 C221.027158,385.965727 261.213806,357.009399 261.213806,316.942819 C261.213806,282.424398 236.868555,261.354044 180.834061,247.319646 L126.566769,233.572519 C48.5368446,214.26437 13.3325461,179.158547 13.3325461,121.24589 C13.3325461,49.8733755 75.8156075,0.433023021 164.70458,0.433023021 C250.94275,0.433023021 312.254126,50.1606449 314.309412,121.833292 L257.109683,121.833292 C252.704577,77.9550326 216.916586,51.0353159 163.238362,51.0353159 C110.136305,51.0353159 73.1766288,78.242302 73.1766288,118.021613 C73.1766288,149.027415 96.0621102,167.461965 152.384688,181.796494 L197.559059,193.494148 C284.976438,214.852843 320.763355,248.782791 320.763355,309.920797 C320.763355,387.730076 258.862911,436.583027 160.298399,436.583027 C68.7768977,436.583027 6.29383626,388.017345 1.60064641,312.846014 L59.390518,312.846014 L59.390518,312.84387 Z" id="Path"></path>
                    <polygon id="Path" points="684.126538 429.557789 626.625825 429.557789 559.449574 196.129952 558.277889 196.129952 491.396171 429.557789 433.901908 429.557789 348.828974 123.869903 404.562484 123.869903 463.8175 369.295526 464.995635 369.295526 531.877352 123.869903 585.85011 123.869903 653.320895 369.295526 654.49903 369.295526 713.75512 123.869903 768.899564 123.869903"></polygon>
                    <path d="M806.028005,41.6733344 C806.028005,23.2527191 821.286785,8.33078811 839.76716,8.33078811 C858.542069,8.33078811 873.794399,23.2527191 873.794399,41.6733344 C873.794399,60.1068124 858.542069,75.3170847 839.76716,75.3170847 C821.286785,75.3170847 806.028005,60.1078843 806.028005,41.6733344 Z M811.89933,123.869903 L867.927374,123.869903 L867.927374,429.557789 L811.89933,429.557789 L811.89933,123.869903 Z" id="Shape"></path>
                    <path d="M1233.81667,168.922966 L1233.81667,123.868831 L1174.56058,123.868831 L1174.56058,50.7469746 L1118.82062,50.7469746 L1118.82062,123.868831 L1073.35171,123.868831 L1011.72,123.868831 L1011.72,96.9619776 C1012.00809,69.7549915 1022.5726,58.3446075 1047.80253,58.3446075 C1056.01077,58.3446075 1064.22654,59.2321413 1070.97609,60.3940818 L1070.97609,16.5158226 C1060.99957,15.0537499 1051.90665,14.1790789 1041.34859,14.1790789 C981.503428,14.1790789 956.275652,39.0493212 956.275652,96.0873065 L956.275652,123.868831 L913.451101,123.868831 L913.451101,168.922966 L956.275652,168.922966 L956.275652,429.556717 L1012.00916,429.556717 L1012.00916,168.922966 L1073.35279,168.922966 L1118.82169,168.922966 L1118.82169,349.410694 C1118.82169,408.499226 1141.41264,431.306059 1200.07859,431.306059 C1212.69301,431.306059 1227.06819,430.431388 1233.52321,428.969315 L1233.52321,383.341714 C1229.70717,383.929116 1218.55789,384.803787 1212.39955,384.803787 C1186.29355,384.803787 1174.56273,372.518732 1174.56273,345.024476 L1174.56273,168.922966 L1233.81667,168.922966 Z" id="Path"></path>
                </g>
                <g id="GraphQL" transform="translate(1436.202780, 0.000000)" fill-rule="nonzero">
                    <polygon id="Rectangle" transform="translate(173.322860, 256.387665) rotate(-149.999272) translate(-173.322860, -256.387665) " points="159.649025 -7.10869708 186.958797 -7.10673297 186.996695 519.884026 159.686922 519.882062"></polygon>
                    <rect id="Rectangle" x="24.3479967" y="441.298469" width="526.936713" height="27.3137755"></rect>
                    <polygon id="Rectangle" transform="translate(173.385539, 520.916315) rotate(-149.999272) translate(-173.385539, -520.916315) " points="21.2066067 507.24935 325.562508 507.271239 325.564472 534.58328 21.2085708 534.561391"></polygon>
                    <polygon id="Rectangle" transform="translate(402.346204, 124.242960) rotate(-149.999272) translate(-402.346204, -124.242960) " points="250.167271 110.575996 554.523173 110.597885 554.525137 137.909925 250.169235 137.888036"></polygon>
                    <polygon id="Rectangle" transform="translate(173.458583, 124.138971) rotate(-120.000728) translate(-173.458583, -124.138971) " points="159.791619 -28.0399621 187.103659 -28.037998 187.125548 276.317903 159.813508 276.315939"></polygon>
                    <polygon id="Rectangle" transform="translate(402.533585, 256.392601) rotate(-120.000728) translate(-402.533585, -256.392601) " points="139.037223 242.718766 666.027982 242.756663 666.029947 270.066436 139.039187 270.028538"></polygon>
                    <rect id="Rectangle" x="45.2412101" y="170.299745" width="27.3092396" height="304.40051"></rect>
                    <rect id="Rectangle" x="503.24677" y="170.299745" width="27.3092396" height="304.40051"></rect>
                    <polygon id="Rectangle" transform="translate(402.345052, 520.764444) rotate(-120.000728) translate(-402.345052, -520.764444) " points="390.407082 388.409898 414.263985 388.411614 414.283023 653.11899 390.42612 653.117274"></polygon>
                    <path d="M566.748978,483.585459 C550.955683,511.063776 515.749796,520.442602 488.276043,504.646684 C460.802289,488.850765 451.42502,453.639031 467.218316,426.160714 C483.011611,398.682398 518.217498,389.303571 545.691251,405.09949 C573.329518,421.059949 582.706787,456.107143 566.748978,483.585459" id="Path"></path>
                    <path d="M108.414391,218.839286 C92.6210957,246.317602 57.4152085,255.696429 29.9414554,239.90051 C2.46770237,224.104592 -6.90956664,188.892857 8.88372854,161.414541 C24.6770237,133.936224 59.8829109,124.557398 87.3566639,140.353316 C114.830417,156.313776 124.207686,191.360969 108.414391,218.839286" id="Path"></path>
                    <path d="M9.04824203,483.585459 C-6.74505315,456.107143 2.63221586,421.059949 30.1059689,405.09949 C57.579722,389.303571 92.6210957,398.682398 108.578904,426.160714 C124.3722,453.639031 114.99493,488.686224 87.5211774,504.646684 C59.8829109,520.442602 24.8415372,511.063776 9.04824203,483.585459" id="Path"></path>
                    <path d="M467.382829,218.839286 C451.589534,191.360969 460.966803,156.313776 488.440556,140.353316 C515.914309,124.557398 550.955683,133.936224 566.913491,161.414541 C582.706787,188.892857 573.329518,223.940051 545.855765,239.90051 C518.382011,255.696429 483.176124,246.317602 467.382829,218.839286" id="Path"></path>
                    <path d="M287.89861,644.670918 C256.147506,644.670918 230.483401,619.002551 230.483401,587.246173 C230.483401,555.489796 256.147506,529.821429 287.89861,529.821429 C319.649714,529.821429 345.313818,555.489796 345.313818,587.246173 C345.313818,618.83801 319.649714,644.670918 287.89861,644.670918" id="Path"></path>
                    <path d="M287.89861,115.178571 C256.147506,115.178571 230.483401,89.5102041 230.483401,57.7538265 C230.483401,25.997449 256.147506,0.329081633 287.89861,0.329081633 C319.649714,0.329081633 345.313818,25.997449 345.313818,57.7538265 C345.313818,89.5102041 319.649714,115.178571 287.89861,115.178571" id="Path"></path>
                </g>
            </g>
        </g>
    </g>
</svg>