<svg width="58" height="62" viewBox="0 0 58 62" fill="none" xmlns="http://www.w3.org/2000/svg">
<g id="logos/swift">
<path id="Vector" d="M32.3304 13C46.8327 23.0476 42.1421 34.112 42.1421 34.112C42.1421 34.112 46.2656 38.8468 44.6064 43C44.6064 43 42.9017 40.1028 40.0559 40.1028C37.308 40.1028 35.6943 43 30.1497 43C17.8282 43 12 32.5171 12 32.5171C23.0963 39.9707 30.6712 34.6901 30.6712 34.6901C25.6656 31.725 15.0314 17.5885 15.0314 17.5885C24.3005 25.6237 28.3015 27.7324 28.3015 27.7324C25.9072 25.7236 19.2004 15.8972 19.2004 15.8972C24.5665 21.4313 35.2183 29.1346 35.2183 29.1346C38.2602 20.6177 32.3304 13 32.3304 13Z" fill="url(#paint0_linear)"/>
<path id="Union" fill-rule="evenodd" clip-rule="evenodd" d="M5 11.675C5.72791 11.675 6.41949 11.8306 7.04332 12.1103L26.1439 1.125C27.0439 0.625 28.1439 0.324951 29.1439 0.324951C30.2439 0.324951 31.2439 0.625 32.1439 1.125L48.5439 10.625C47.3439 11.425 46.4439 12.6249 45.8439 14.0249L29.9438 4.82495C29.6439 4.625 29.344 4.625 29.0441 4.625H29.0439C28.7439 4.625 28.4439 4.72495 28.1439 4.82495L9.82254 15.35C9.93823 15.772 10 16.2163 10 16.675C10 19.4365 7.76142 21.675 5 21.675C2.23858 21.675 0 19.4365 0 16.675C0 13.9136 2.23858 11.675 5 11.675ZM51.3492 11.954C51.866 11.7733 52.4215 11.675 53 11.675C55.7614 11.675 58 13.9136 58 16.675C58 18.5076 57.0142 20.1099 55.5439 20.9805V41.5249C55.5439 43.7249 54.3439 45.725 52.5439 46.825L36.1439 56.225C36.1439 54.725 35.6438 53.225 34.7438 52.125L50.3439 43.125C50.9439 42.825 51.2438 42.2249 51.2438 41.5249V21.3579C49.5846 20.7354 48.3442 19.2564 48.0611 17.4593C47.9844 17.1284 47.9438 16.7825 47.9438 16.4249C47.9438 15.4249 48.2439 14.525 48.8439 13.725C48.8939 13.675 48.9439 13.6 48.9939 13.525C49.0439 13.45 49.0939 13.375 49.1439 13.325C49.4439 13.025 49.6438 12.825 49.9438 12.625C49.9438 12.625 50.0439 12.6249 50.0439 12.5249C50.1057 12.4631 50.1675 12.4395 50.2528 12.4069C50.3056 12.3868 50.3674 12.3632 50.4438 12.325C50.4438 12.325 50.5439 12.325 50.5439 12.225C50.6439 12.175 50.7189 12.15 50.7939 12.1249C50.8689 12.0999 50.9439 12.0749 51.0439 12.0249C51.1403 12.0008 51.2425 11.9767 51.3492 11.954ZM33.8439 55.4305C33.9458 55.8284 34 56.2454 34 56.675C34 59.4365 31.7614 61.675 29 61.675C26.5102 61.675 24.4454 59.8552 24.0633 57.473L5.84387 46.9249C3.94387 45.8249 2.84387 43.825 2.84387 41.625V23.125C3.54387 23.325 4.34388 23.5249 5.04388 23.5249C5.74388 23.5249 6.44388 23.425 7.04388 23.225V41.625C7.04388 42.325 7.44385 42.925 7.94385 43.225L25.3263 53.2833C26.2398 52.2943 27.5476 51.675 29 51.675C31.3291 51.675 33.2862 53.2675 33.8419 55.423L33.8436 55.4247L33.8439 55.4249V55.4305Z" fill="url(#paint1_linear)"/>
</g>
<defs>
<linearGradient id="paint0_linear" x1="25" y1="25.5" x2="46.5" y2="43" gradientUnits="userSpaceOnUse">
<stop stop-color="#F25C40"/>
<stop offset="1" stop-color="#FF9E57"/>
</linearGradient>
<linearGradient id="paint1_linear" x1="22.8485" y1="25.8875" x2="65.0294" y2="55.3952" gradientUnits="userSpaceOnUse">
<stop stop-color="#F25C40"/>
<stop offset="1" stop-color="#FF9E57"/>
</linearGradient>
</defs>
</svg>
